<svg width="200" height="55" viewBox="0 0 200 55" fill="none" xmlns="http://www.w3.org/2000/svg">
<path d="M27.434 33.5875L17.834 24.1698L27.434 28.8786L49.8339 15.3799L27.434 33.5875Z" fill="#F8961F"/>
<rect x="14.2402" y="28" width="0.695201" height="2.82947" rx="0.3476" transform="rotate(-90 14.2402 28)" fill="#F8961F"/>
<rect x="38.1211" y="28" width="0.695201" height="2.82947" rx="0.3476" transform="rotate(-90 38.1211 28)" fill="#F8961F"/>
<rect x="26.9863" y="13.3799" width="0.707367" height="2.7808" rx="0.353683" fill="#F8961F"/>
<rect x="26.9863" y="38.6226" width="0.707367" height="2.7808" rx="0.353683" fill="#F8961F"/>
<path d="M44.6183 27.38C44.6183 36.5523 37.049 44.01 27.6842 44.01C18.3194 44.01 10.75 36.5523 10.75 27.38C10.75 18.2077 18.3194 10.75 27.6842 10.75C37.049 10.75 44.6183 18.2077 44.6183 27.38Z" stroke="#F8961F" stroke-width="1.5"/>
<path d="M57.482 18.9971H54.834V16.9419H57.482V12.1484H59.9585V16.9273H65.1905V18.9825H59.9585V30.8021C59.9585 33.1276 60.7607 33.8688 62.9582 33.8688H65.1876V35.9618H62.5716C59.2609 35.9618 57.482 34.6014 57.482 30.8021V18.9971Z" fill="#133754"/>
<path d="M66.7397 13.1492C66.7397 12.6777 66.927 12.2256 67.2603 11.8922C67.5937 11.5589 68.0458 11.3716 68.5172 11.3716C68.9886 11.3716 69.4406 11.5589 69.774 11.8922C70.1073 12.2256 70.2946 12.6777 70.2946 13.1492C70.3043 13.3887 70.2655 13.6276 70.1805 13.8517C70.0955 14.0758 69.9662 14.2805 69.8002 14.4533C69.6342 14.6262 69.435 14.7637 69.2145 14.8577C68.994 14.9516 68.7569 15.0001 68.5172 15.0001C68.2775 15.0001 68.0403 14.9516 67.8198 14.8577C67.5993 14.7637 67.4002 14.6262 67.2342 14.4533C67.0682 14.2805 66.9388 14.0758 66.8538 13.8517C66.7688 13.6276 66.73 13.3887 66.7397 13.1492V13.1492ZM67.2978 16.9281H69.7365V35.9858H67.2978V16.9281Z" fill="#133754"/>
<path d="M99.6646 25.0937C99.6646 20.8758 97.47 18.6985 94.0866 18.6985C90.6364 18.6985 88.1977 21.0007 88.1977 25.6373V35.9568H85.791V25.0792C85.791 20.8613 83.5587 18.6839 80.1782 18.6839C76.6902 18.6839 74.2864 20.9862 74.2864 25.6227V35.9423H71.8477V16.9078H74.2864V20.1839C74.8864 19.0435 75.7982 18.0974 76.9155 17.4556C78.0328 16.8137 79.3095 16.5028 80.5968 16.559C82.1183 16.4695 83.6277 16.8765 84.8979 17.719C86.1681 18.5615 87.1303 19.7938 87.6397 21.2304C88.1268 19.8152 89.0587 18.5955 90.2961 17.7535C91.5335 16.9116 93.0101 16.4926 94.5052 16.559C95.5678 16.5151 96.6271 16.7034 97.6094 17.1109C98.5917 17.5184 99.4733 18.1352 100.193 18.9184C100.912 19.7016 101.452 20.6323 101.775 21.6456C102.098 22.6589 102.196 23.7304 102.063 24.7855V35.9423H99.6559L99.6646 25.0937Z" fill="#133754"/>
<path d="M113.093 36.0757C110.578 35.9531 108.206 34.8675 106.469 33.0437C104.732 31.22 103.764 28.798 103.764 26.2794C103.764 23.7609 104.732 21.3388 106.469 19.5151C108.206 17.6914 110.578 16.6058 113.093 16.4832C114.276 16.4218 115.458 16.6066 116.565 17.0257C117.673 17.4449 118.681 18.0894 119.526 18.9184C120.371 19.7474 121.035 20.7429 121.476 21.8418C121.917 22.9408 122.125 24.1193 122.087 25.3027C122.1 25.943 122.077 26.5835 122.02 27.2213H106.225C106.205 28.1253 106.37 29.0237 106.71 29.8619C107.049 30.7001 107.555 31.4603 108.198 32.0963C108.841 32.7323 109.606 33.2306 110.448 33.5609C111.29 33.8912 112.19 34.0466 113.093 34.0176C114.45 34.1265 115.802 33.7624 116.921 32.9871C118.039 32.2119 118.855 31.0734 119.229 29.7648H121.808C121.329 31.6738 120.193 33.353 118.6 34.5072C117.006 35.6614 115.056 36.2168 113.093 36.0757V36.0757ZM106.225 25.2329H119.613C119.677 24.3449 119.55 23.4536 119.24 22.619C118.93 21.7844 118.445 21.0259 117.817 20.3948C117.189 19.7636 116.433 19.2743 115.601 18.9601C114.768 18.6459 113.877 18.514 112.989 18.5732C112.103 18.5477 111.221 18.7015 110.396 19.0257C109.57 19.3498 108.819 19.8374 108.188 20.4592C107.556 21.0811 107.056 21.8243 106.719 22.6441C106.382 23.464 106.214 24.3436 106.225 25.2301V25.2329Z" fill="#133754"/>
<path d="M136.352 18.9631L126.556 33.954H136.526V35.9888H123.766V33.954L133.561 18.9631H123.94V16.9282H136.352V18.9631Z" fill="#133754"/>
<path d="M153.65 16.7656H156.162L144.866 44.7592H142.32L146.014 35.6954L138.207 16.7656H140.893L147.375 33.0095L153.65 16.7656Z" fill="#133754"/>
<path d="M172.098 25.2739C172.221 24.4577 172.162 23.6242 171.924 22.8339C171.685 22.0435 171.275 21.316 170.721 20.704C170.167 20.0919 169.484 19.6106 168.721 19.295C167.958 18.9793 167.135 18.8371 166.311 18.8787C162.753 18.8787 160.279 21.1112 160.279 25.7477V36.137H157.838V17.1025H160.279V20.3438C160.911 19.1941 161.856 18.2466 163.003 17.6109C164.151 16.9751 165.455 16.6769 166.764 16.7508C167.838 16.6929 168.912 16.8702 169.911 17.2704C170.909 17.6705 171.808 18.2838 172.545 19.0675C173.282 19.8512 173.839 20.7864 174.177 21.8076C174.515 22.8289 174.626 23.9117 174.502 24.9803V36.137H172.098V25.2739Z" fill="#133754"/>
<path d="M176.182 10.001H178.623V25.2709L186.291 16.7653H189.709L180.681 26.2477L189.776 35.7998H186.465L178.617 27.2564V35.7998H176.176L176.182 10.001Z" fill="#133754"/>
<path d="M68.5754 15.0985C69.6105 15.0985 70.4496 14.2594 70.4496 13.2243C70.4496 12.1892 69.6105 11.3501 68.5754 11.3501C67.5403 11.3501 66.7012 12.1892 66.7012 13.2243C66.7012 14.2594 67.5403 15.0985 68.5754 15.0985Z" fill="#F6A145"/>
</svg>
